<?xml version="1.0" encoding="UTF-8" standalone="no"?>
<!-- Created with Inkscape (http://www.inkscape.org/) -->

<svg
   xmlns:dc="http://purl.org/dc/elements/1.1/"
   xmlns:cc="http://creativecommons.org/ns#"
   xmlns:rdf="http://www.w3.org/1999/02/22-rdf-syntax-ns#"
   xmlns:svg="http://www.w3.org/2000/svg"
   xmlns="http://www.w3.org/2000/svg"
   xmlns:sodipodi="http://sodipodi.sourceforge.net/DTD/sodipodi-0.dtd"
   xmlns:inkscape="http://www.inkscape.org/namespaces/inkscape"
   version="1.1"
   id="svg2"
   xml:space="preserve"
   width="250.88672"
   height="250.88477"
   viewBox="0 0 250.88672 250.88475"
   sodipodi:docname="eu_flag.svg"
   inkscape:version="0.92.4 5da689c313, 2019-01-14"><metadata
     id="metadata8"><rdf:RDF><cc:Work
         rdf:about=""><dc:format>image/svg+xml</dc:format><dc:type
           rdf:resource="http://purl.org/dc/dcmitype/StillImage" /><dc:title></dc:title></cc:Work></rdf:RDF></metadata><defs
     id="defs6" /><sodipodi:namedview
     pagecolor="#ffffff"
     bordercolor="#666666"
     borderopacity="1"
     objecttolerance="10"
     gridtolerance="10"
     guidetolerance="10"
     inkscape:pageopacity="0"
     inkscape:pageshadow="2"
     inkscape:window-width="1920"
     inkscape:window-height="1043"
     id="namedview4"
     showgrid="false"
     inkscape:snap-bbox="true"
     inkscape:snap-bbox-midpoints="true"
     inkscape:snap-center="true"
     fit-margin-top="0"
     fit-margin-left="0"
     fit-margin-right="0"
     fit-margin-bottom="0"
     inkscape:zoom="2"
     inkscape:cx="71.790097"
     inkscape:cy="144.22449"
     inkscape:window-x="0"
     inkscape:window-y="18"
     inkscape:window-maximized="0"
     inkscape:current-layer="g10" /><g
     id="g10"
     inkscape:groupmode="layer"
     inkscape:label="flag_yellow_"
     transform="matrix(1.3333333,0,0,-1.3333333,-269.6543,672.81709)"><path
       style="fill:#254aa5;fill-opacity:1;fill-rule:nonzero;stroke:none;stroke-width:1.33333325"
       d="M 395.09766,449.84961 A 125.44317,125.44317 0 0 0 269.6543,575.29297 125.44317,125.44317 0 0 0 395.09766,700.73438 125.44317,125.44317 0 0 0 520.54102,575.29297 125.44317,125.44317 0 0 0 395.09766,449.84961 Z"
       transform="matrix(0.75000002,0,0,-0.75000002,0,842.00005)"
       id="path14"
       inkscape:connector-curvature="0" /><g
       id="g16"
       transform="translate(290.2803,463.8711)"><path
         d="M 0,0 5.984,4.367 11.969,0 9.691,7.062 15.77,11.43 H 8.277 L 5.984,18.578 3.691,11.422 -3.797,11.43 2.277,7.062 Z"
         style="fill:#fff200;fill-opacity:1;fill-rule:nonzero;stroke:none"
         id="path18"
         inkscape:connector-curvature="0" /></g><g
       id="g20"
       transform="translate(259.3115,455.5508)"><path
         d="M 0,0 5.984,4.367 11.965,0 9.691,7.062 15.766,11.43 H 8.273 L 5.98,18.586 3.688,11.422 -3.801,11.43 2.273,7.062 Z"
         style="fill:#fff200;fill-opacity:1;fill-rule:nonzero;stroke:none"
         id="path22"
         inkscape:connector-curvature="0" /></g><g
       id="g24"
       transform="translate(242.6357,451.4258)"><path
         d="m 0,0 -2.293,-7.164 -7.488,0.008 6.074,-4.367 -2.277,-7.063 5.984,4.367 5.984,-4.367 -2.277,7.063 6.074,4.367 H 2.293 Z"
         style="fill:#fff200;fill-opacity:1;fill-rule:nonzero;stroke:none"
         id="path26"
         inkscape:connector-curvature="0" /></g><g
       id="g28"
       transform="translate(234.3232,406.2773)"><path
         d="M 0,0 5.98,-4.367 3.707,2.695 9.781,7.062 H 2.293 L 0,14.219 -2.293,7.047 -9.785,7.062 -3.707,2.695 -5.984,-4.367 Z"
         style="fill:#fff200;fill-opacity:1;fill-rule:nonzero;stroke:none"
         id="path30"
         inkscape:connector-curvature="0" /></g><g
       id="g32"
       transform="translate(244.9287,382.3164)"><path
         d="M 0,0 -2.293,7.156 -4.586,-0.008 -12.074,0 -6,-4.367 -8.277,-11.43 -2.293,-7.055 3.691,-11.43 1.414,-4.367 7.488,0 Z"
         style="fill:#fff200;fill-opacity:1;fill-rule:nonzero;stroke:none"
         id="path34"
         inkscape:connector-curvature="0" /></g><g
       id="g36"
       transform="translate(267.6318,359.6133)"><path
         d="M 0,0 -2.293,7.148 -4.582,-0.008 -12.074,0 -6,-4.367 -8.273,-11.43 -2.289,-7.062 3.691,-11.43 1.418,-4.367 7.492,0 Z"
         style="fill:#fff200;fill-opacity:1;fill-rule:nonzero;stroke:none"
         id="path38"
         inkscape:connector-curvature="0" /></g><g
       id="g40"
       transform="translate(298.5615,351.3867)"><path
         d="M 0,0 -2.293,7.156 -4.582,-0.008 -12.074,0 -6,-4.367 -8.273,-11.43 -2.289,-7.062 3.691,-11.43 1.414,-4.367 7.492,0 Z"
         style="fill:#fff200;fill-opacity:1;fill-rule:nonzero;stroke:none"
         id="path42"
         inkscape:connector-curvature="0" /></g><g
       id="g44"
       transform="translate(329.4912,359.6133)"><path
         d="M 0,0 -2.289,7.148 -4.586,-0.008 -12.07,0 -6,-4.367 -8.273,-11.43 -2.289,-7.062 3.695,-11.43 1.414,-4.367 7.492,0 Z"
         style="fill:#fff200;fill-opacity:1;fill-rule:nonzero;stroke:none"
         id="path46"
         inkscape:connector-curvature="0" /></g><g
       id="g48"
       transform="translate(352.2021,382.3164)"><path
         d="M 0,0 -2.297,7.156 -4.594,-0.008 -12.078,0 -6,-4.367 -8.281,-11.43 -2.297,-7.055 3.688,-11.43 1.406,-4.367 7.484,0 Z"
         style="fill:#fff200;fill-opacity:1;fill-rule:nonzero;stroke:none"
         id="path50"
         inkscape:connector-curvature="0" /></g><g
       id="g52"
       transform="translate(367.9131,413.4258)"><path
         d="M 0,0 H -7.492 L -9.789,7.156 -12.078,-0.008 -19.57,0 l 6.078,-4.367 -2.274,-7.063 5.977,4.375 5.984,-4.375 -2.273,7.063 z"
         style="fill:#fff200;fill-opacity:1;fill-rule:nonzero;stroke:none"
         id="path54"
         inkscape:connector-curvature="0" /></g><g
       id="g56"
       transform="translate(343.9209,432.9336)"><path
         d="M 0,0 5.984,4.367 11.969,0 9.688,7.062 l 6.078,4.36 H 8.281 l -2.297,7.156 -2.296,-7.164 -7.485,0.008 6.078,-4.36 z"
         style="fill:#fff200;fill-opacity:1;fill-rule:nonzero;stroke:none"
         id="path58"
         inkscape:connector-curvature="0" /></g><g
       id="g60"
       transform="translate(327.2881,474.1289)"><path
         d="m 0,0 -2.289,-7.164 -7.492,0.016 6.07,-4.375 -2.273,-7.063 5.992,4.375 5.976,-4.375 -2.273,7.063 6.078,4.375 h -7.5 z"
         style="fill:#fff200;fill-opacity:1;fill-rule:nonzero;stroke:none"
         id="path62"
         inkscape:connector-curvature="0" /></g></g></svg>